<svg data-name="Ebene 1" xmlns="http://www.w3.org/2000/svg" width="690" height="414" viewBox="0 0 690 414"><path d="M341.449 62.508c-79.563 0-144.061 64.238-144.061 143.48 0 .194.007.387.007.581h58.332c0-.195-.015-.386-.015-.581 0-47.16 38.386-85.391 85.737-85.391s85.736 38.231 85.736 85.391c0 .195-.013.386-.015.581h58.33c0-.194.008-.387.008-.581.002-79.242-64.497-143.48-144.059-143.48z" fill="#1b60a4" stroke="#fff" stroke-miterlimit="10"/><path d="M341.449 350.63c-79.563 0-144.061-64.238-144.061-143.48 0-.194.007-.387.007-.581h58.332c0 .2-.015.386-.015.581 0 47.16 38.386 85.391 85.737 85.391s85.736-38.231 85.736-85.391c0-.195-.013-.386-.015-.581h58.33c0 .194.008.387.008.581.002 79.242-64.497 143.48-144.059 143.48z" fill="#45ac34" stroke="#fff" stroke-miterlimit="10"/><path d="M444.47 28.558l-30.108 52.149a144.008 144.008 0 0172.9 125.279v.253h59.736c0-.277.011-.551.011-.827C547 129.832 505.761 63.849 444.47 28.558z" fill="#009fe3" stroke="#fff" stroke-miterlimit="10"/><path d="M238.882 29.337L269.313 81.3a144.006 144.006 0 01144.937-1.39c.073.042.146.085.218.129l29.548-51.917c-.24-.137-.474-.282-.714-.419-65.687-37.384-143.432-34.178-204.42 1.634z" fill="#1b60a4" stroke="#fff" stroke-miterlimit="10"/><path d="M136.063 206.4l60.215.433a144.008 144.008 0 0172.949-125.251c.073-.042.148-.082.222-.122l-29.5-51.947c-.24.136-.484.263-.724.4C173.505 67.23 136.49 135.674 136.063 206.4z" fill="#009fe3" stroke="#fff" stroke-miterlimit="10"/><path d="M238.133 384.651l30.267-52.058a144 144 0 01-72.517-125.5v-.253l-59.736-.18c0 .276-.013.55-.013.827-.226 75.58 40.816 141.687 101.999 177.164zM548 206.012l-60.216-.219a144.011 144.011 0 01-72.5 125.508l-.221.122 29.68 51.842c.24-.137.483-.265.723-.4C511.054 345.311 547.825 276.736 548 206.012z" fill="#007e4b" stroke="#fff" stroke-miterlimit="10"/><path d="M444.017 384.356l-30.153-52.124a144.008 144.008 0 01-144.943.617c-.073-.042-.145-.086-.217-.129l-29.824 51.759c.239.138.472.284.711.422 65.487 37.733 143.248 34.941 204.426-.545z" fill="#45ac34" stroke="#fff" stroke-miterlimit="10"/><path d="M310.167 173.754l-1.728 1.68a4.452 4.452 0 00-2.905-1.08c-3.888 0-5.112 4.848-5.112 8.137 0 2.976 1.32 4.176 3.24 4.176a5.952 5.952 0 003.553-1.392l1.272 1.968a7.94 7.94 0 01-5.209 1.968c-3.648 0-6.12-2.376-6.12-6.816 0-4.489 2.28-10.489 8.28-10.489a6.3 6.3 0 014.729 1.848zM319.263 176.01l-.888 2.952a3.867 3.867 0 00-1.056-.144c-1.609 0-2.569 1.512-3.361 3.769l-.888 6.264h-3.024l1.776-12.7h2.616l-.1 2.472c.936-1.872 2.232-2.808 3.649-2.808a4.283 4.283 0 011.276.195zM321.686 184.2c.072 1.968 1.08 2.64 2.472 2.64a5.486 5.486 0 003.313-1.176l1.176 1.92a8.22 8.22 0 01-4.825 1.632c-3.456 0-5.232-2.064-5.232-5.28 0-3.457 1.8-8.137 6.912-8.137 2.9 0 4.393 1.56 4.393 3.36.005 3.572-4.032 4.604-8.209 5.041zm5.088-4.921a1.269 1.269 0 00-1.44-1.3c-2.184 0-3.168 2.136-3.5 4.177 3.404-.314 4.94-1.25 4.94-2.882zM342.9 177.018l-1.224 8.521c-.12.864-.048 1.32.672 1.608l-.864 2.016a2.635 2.635 0 01-2.616-2.112 4.685 4.685 0 01-3.793 2.16c-2.64 0-4.08-1.968-4.08-4.968 0-3.577 1.872-8.449 7.056-8.449a10.31 10.31 0 014.849 1.224zm-8.737 7.225c0 1.92.7 2.64 1.752 2.64 1.153 0 2.017-.816 2.881-2.016l.912-6.481a3.862 3.862 0 00-1.7-.336c-2.808 0-3.842 3.55-3.842 6.193zM348.542 185.035c-.192 1.248.144 1.68.96 1.68a3.662 3.662 0 001.633-.456L352 188.3a6.169 6.169 0 01-3.193.912c-2.448 0-3.672-1.512-3.288-4.2l.936-6.649h-1.968l.312-2.208h2.088l.792-2.88 2.544-.288-.431 3.168h2.928l-.648 2.208h-2.592zM356.582 188.851h-3.024l1.776-12.7h3.024zm-.984-17.065a2.04 2.04 0 012.088-2.065 1.626 1.626 0 011.728 1.681 2.034 2.034 0 01-2.088 2.04 1.62 1.62 0 01-1.726-1.656zM371.727 179.778l-1.272 9.073h-3.025l1.225-8.617c.191-1.512-.289-1.92-1.033-1.92-1.248 0-2.4 1.464-3.336 3.265l-1.032 7.272h-3.024l1.776-12.7h2.616l-.12 2.352a5.413 5.413 0 014.369-2.712c2.064.003 3.216 1.491 2.856 3.987zM385.983 177.018l-1.656 11.161c-.624 4.32-2.737 5.952-6.289 5.952a9.311 9.311 0 01-4.584-1.32l1.056-2.136a7.234 7.234 0 003.456 1.008c1.512 0 3-.456 3.384-3.216l.192-1.392a4.646 4.646 0 01-3.48 1.776c-2.64 0-4.1-1.944-4.1-4.848 0-3.649 1.92-8.209 7.152-8.209a10.266 10.266 0 014.869 1.224zm-8.857 6.937c0 1.9.768 2.568 1.8 2.568 1.152 0 2.088-.888 2.928-2.04l.96-6.1a4.226 4.226 0 00-1.752-.336c-2.856.003-3.936 3.267-3.936 5.908zM283.12 209.562c0 3.625-1.656 8.449-7.153 8.449a13.515 13.515 0 01-4.872-.96l2.424-17.185 3.048-.336-.912 6.576a5.228 5.228 0 013.576-1.512c2.449 0 3.889 1.8 3.889 4.968zm-7.8-1.032l-.936 6.841a5.2 5.2 0 001.872.336c2.736 0 3.721-3.6 3.721-6.193 0-1.992-.793-2.616-1.825-2.616a3.936 3.936 0 00-2.833 1.632zM294.159 204.81l-.888 2.952a3.867 3.867 0 00-1.056-.144c-1.608 0-2.568 1.512-3.36 3.769l-.888 6.264h-3.025l1.777-12.7h2.616l-.1 2.472c.936-1.872 2.232-2.808 3.648-2.808a4.283 4.283 0 011.276.195zM297.255 217.651h-3.025l1.776-12.7h3.025zm-.984-17.065a2.039 2.039 0 012.088-2.064 1.626 1.626 0 011.728 1.68 2.034 2.034 0 01-2.088 2.04 1.62 1.62 0 01-1.728-1.656zM312.9 205.818l-1.656 11.161c-.624 4.32-2.736 5.953-6.288 5.953a9.316 9.316 0 01-4.585-1.321l1.056-2.136a7.238 7.238 0 003.457 1.008c1.512 0 3-.456 3.384-3.216l.192-1.392a4.646 4.646 0 01-3.48 1.776c-2.64 0-4.105-1.944-4.105-4.848 0-3.649 1.921-8.209 7.153-8.209a10.262 10.262 0 014.872 1.224zm-8.856 6.937c0 1.9.768 2.568 1.8 2.568 1.152 0 2.088-.888 2.928-2.04l.96-6.1a4.226 4.226 0 00-1.752-.336c-2.853.003-3.933 3.268-3.933 5.908zM326.3 208.53l-1.3 9.121h-3.024l1.224-8.617c.192-1.512-.264-1.92-.984-1.92-1.3 0-2.473 1.464-3.433 3.265l-.984 7.272h-3.024l2.5-17.761 3.048-.312-1.08 7.608a5.011 5.011 0 014.105-2.592c2.131 0 3.283 1.488 2.952 3.936zM332.342 213.835c-.192 1.248.144 1.68.96 1.68a3.658 3.658 0 001.632-.456l.865 2.04a6.169 6.169 0 01-3.193.912c-2.448 0-3.672-1.512-3.288-4.2l.936-6.649h-1.968l.312-2.208h2.088l.792-2.88 2.544-.288-.432 3.168h2.929l-.648 2.208h-2.593zM339.95 213c.072 1.968 1.08 2.64 2.472 2.64a5.479 5.479 0 003.312-1.176l1.177 1.92a8.22 8.22 0 01-4.825 1.632c-3.456 0-5.232-2.064-5.232-5.28 0-3.457 1.8-8.137 6.912-8.137 2.9 0 4.393 1.56 4.393 3.36 0 3.572-4.033 4.604-8.209 5.041zm5.088-4.921a1.269 1.269 0 00-1.44-1.3c-2.184 0-3.168 2.136-3.5 4.177 3.402-.314 4.94-1.25 4.94-2.882zM358.694 204.81l-.888 2.952a3.867 3.867 0 00-1.056-.144c-1.608 0-2.568 1.512-3.36 3.769l-.888 6.264h-3.024l1.776-12.7h2.616l-.1 2.472c.936-1.872 2.232-2.808 3.648-2.808a4.283 4.283 0 011.276.195zM367.885 214.651c-.072.648.1.888.553.888a2.558 2.558 0 00.72-.144l.456 2.16a5.077 5.077 0 01-2.113.456c-1.92 0-2.928-1.176-2.616-3.48l2.064-14.665 3.073-.336zM374.509 217.651h-3.024l1.776-12.7h3.024zm-.984-17.065a2.039 2.039 0 012.088-2.064 1.626 1.626 0 011.728 1.68 2.034 2.034 0 01-2.088 2.04 1.62 1.62 0 01-1.728-1.656zM384.157 217.651h-3.624l-2.376-12.7h3.264l1.248 10.225 4.105-10.225h3.216zM392.989 213c.072 1.968 1.08 2.64 2.472 2.64a5.479 5.479 0 003.312-1.176l1.177 1.92a8.22 8.22 0 01-4.825 1.632c-3.456 0-5.232-2.064-5.232-5.28 0-3.457 1.8-8.137 6.912-8.137 2.9 0 4.393 1.56 4.393 3.36.002 3.572-4.032 4.604-8.209 5.041zm5.088-4.921a1.269 1.269 0 00-1.44-1.3c-2.184 0-3.168 2.136-3.5 4.177 3.404-.314 4.94-1.25 4.94-2.882zM412.429 206.2l-1.392 1.7a5.238 5.238 0 00-3.048-1.032c-1.32 0-2.064.5-2.064 1.344 0 .816.648 1.1 2.5 1.705 2.256.719 3.433 1.824 3.433 3.816 0 2.568-2.161 4.272-5.521 4.272a6.852 6.852 0 01-4.992-1.968l1.584-1.656a5.213 5.213 0 003.48 1.32c1.728 0 2.376-.864 2.376-1.632 0-1.008-.576-1.344-2.592-2.016-2.3-.744-3.312-1.777-3.312-3.6 0-1.944 1.7-3.864 5.112-3.864a6.6 6.6 0 014.436 1.611zM315.543 232.482l-.192 1.272h3l-.624 2.208h-2.688l-1.32 9.409c-.552 3.888-2.425 5.16-5.377 6.312l-.816-2.256a4.247 4.247 0 003.168-3.984l1.344-9.481h-2.064l.312-2.208h2.04l.216-1.464a4.444 4.444 0 014.8-3.961 5.744 5.744 0 013.288.985l-1.08 1.92a3.7 3.7 0 00-1.992-.576 1.815 1.815 0 00-2.015 1.824zM318.11 241.459c0-3.361 1.68-8.065 6.84-8.065 3.289 0 5.113 2.064 5.113 5.328 0 3.313-1.656 8.089-6.841 8.089-3.288 0-5.112-2.04-5.112-5.352zm8.809-2.977c.024-1.92-.72-2.76-2.137-2.76-2.856 0-3.552 3.816-3.552 5.977 0 1.92.744 2.784 2.16 2.784 2.857 0 3.529-3.84 3.529-6.001zM341.15 233.61l-.888 2.952a3.867 3.867 0 00-1.056-.144c-1.608 0-2.568 1.512-3.36 3.769l-.888 6.264h-3.024l1.776-12.7h2.616l-.1 2.472c.936-1.872 2.232-2.808 3.648-2.808a4.283 4.283 0 011.276.195zM358.886 234.618l-1.224 8.521c-.12.864-.048 1.32.672 1.608l-.864 2.016a2.635 2.635 0 01-2.616-2.112 4.684 4.684 0 01-3.792 2.16c-2.641 0-4.081-1.968-4.081-4.968 0-3.577 1.873-8.449 7.057-8.449a10.309 10.309 0 014.848 1.224zm-8.736 7.225c0 1.92.7 2.64 1.752 2.64 1.152 0 2.016-.816 2.88-2.016l.912-6.481a3.862 3.862 0 00-1.7-.336c-2.812 0-3.844 3.55-3.844 6.193zM364.046 243.451c-.072.648.1.888.552.888a2.558 2.558 0 00.72-.144l.456 2.16a5.076 5.076 0 01-2.112.456c-1.921 0-2.929-1.176-2.617-3.48l2.065-14.665 3.072-.337zM370.957 243.451c-.072.648.1.888.552.888a2.544 2.544 0 00.72-.144l.457 2.16a5.084 5.084 0 01-2.113.456c-1.92 0-2.928-1.176-2.616-3.48l2.064-14.665 3.073-.337z"/><g fill="#fff"><path d="M303.146 107.293l-2.832 1.252-5.739-8.308 2.232 9.858-2.749 1.215-7.088-10.467 2.157-.953 5.714 9.007-2.4-10.47 2.305-1.019 6.092 8.84L298.15 95.9l2.058-.91zM311.522 98.772l-4.242 1.269 1.594 5.328-2.276.681-3.564-11.915 2.276-.68 1.429 4.776 4.241-1.269-1.428-4.776 2.293-.686 3.564 11.914-2.293.686zM326.857 94.882c.724 4.039-.927 6.767-4.2 7.354s-5.777-1.323-6.51-5.416c-.721-4.021.944-6.77 4.222-7.357s5.755 1.327 6.488 5.419zm-8.252 1.5c.59 3.3 1.938 4.388 3.728 4.068 1.824-.327 2.655-1.811 2.062-5.123-.587-3.278-1.867-4.4-3.71-4.072-1.824.324-2.67 1.829-2.08 5.124zM345.2 100.23l-3.094.05-2.048-9.88-1.783 9.943-3 .049L332.822 88l2.356-.038 1.753 10.517 1.863-10.579 2.519-.041 2.167 10.51 1.557-10.57 2.249-.036zM356.9 90.582l-4.568-.459-.348 3.458 3.977.4-.176 1.756-3.977-.4-.366 3.637 4.891.491-.179 1.774-7.255-.73 1.244-12.378 7.184.722zM368.742 100.846l-4.012-.954-1.419 2.624-2.4-.571 6.644-11.208 2.856.679.87 13-2.453-.583zm-.057-1.864l-.166-6.147-2.919 5.414zM377.631 101.339l-1.429-.494-1.627 4.713-2.246-.775 4.06-11.757 3.5 1.21c3.079 1.064 4.273 2.733 3.469 5.064a3.36 3.36 0 01-3.481 2.359l1.311 6.184-2.586-.893zm-.871-2.11l1.4.482c1.395.482 2.371.19 2.859-1.222.44-1.276-.1-2.073-1.737-2.637l-1.207-.417zM393.155 101.61l-4.175-1.9-1.44 3.16 3.635 1.656-.731 1.605-3.635-1.657-1.515 3.324 4.47 2.037-.739 1.621-6.631-3.022 5.156-11.313 6.566 2.992z"/></g><g fill="#fff"><path d="M316.649 30.027l-.67 1.132a3.7 3.7 0 00-2.548-.51c-1.918.316-3.285 1.874-2.666 5.621.589 3.57 2.353 4.757 4.307 4.435a4.159 4.159 0 002.462-1.446l.924.851a4.831 4.831 0 01-3.223 1.918c-2.93.483-5.428-1.385-6.105-5.488-.685-4.156 1.231-6.7 4-7.155a4.8 4.8 0 013.519.642zM326.021 37.27l-4.8.5-.639 3.251-1.575.164 2.71-12.73 1.969-.2 5.254 11.9-1.646.171zm-.526-1.229l-2.691-6.4-1.336 6.815zM334.125 34.584l-2.051.087L332.3 40l-1.547.065-.525-12.377 3.184-.135c3.058-.13 4.692.991 4.789 3.275.075 1.763-.817 2.828-2.558 3.425l3.583 5.453-1.853.079zm-.285-1.2c1.781-.075 2.778-.784 2.706-2.493-.067-1.566-1-2.211-3.1-2.122l-1.619.069.2 4.623zM342.929 39.775l-1.547-.024.2-12.378 1.547.025zM355.062 40.254l-2.085-.115-4.625-10.946c.035.993.083 2.42-.043 4.7l-.329 5.968-1.456-.081.682-12.366 2.031.112 4.66 10.966c-.017-.343-.075-2.239.009-3.767l.382-6.921 1.456.081zM368.041 30.408l-1.031.852a3.941 3.941 0 00-2.592-1.339c-1.8-.226-3.8.923-4.257 4.6-.448 3.591.633 5.251 2.849 5.527a4.977 4.977 0 002.466-.274l.481-3.859-2.234-.278-.02-1.291 3.949.492-.738 5.914a7.69 7.69 0 01-4.064.582c-3.145-.392-4.863-2.765-4.333-7.018.519-4.163 3.274-6.033 6.062-5.686a5.209 5.209 0 013.462 1.778z"/></g><g fill="#fff"><path d="M459.235 72.807l-1.3.228a3.7 3.7 0 00-1.272-2.265c-1.49-1.249-3.562-1.271-6 1.639-2.325 2.773-2.076 4.885-.559 6.157a4.152 4.152 0 002.7.926l-.043 1.256a4.831 4.831 0 01-3.555-1.2c-2.276-1.908-2.485-5.02.187-8.207 2.706-3.227 5.883-3.43 8.035-1.626a4.809 4.809 0 011.807 3.092zM464.447 84.877c-2.82 2.958-5.921 3.185-8.163 1.049s-2.212-5.193.644-8.19c2.82-2.958 5.985-3.2 8.2-1.088s2.2 5.206-.681 8.229zm-6.32-6c-2.484 2.606-2.46 4.668-.949 6.109 1.564 1.49 3.573 1.366 6.07-1.254s2.562-4.645.985-6.148c-1.533-1.463-3.597-1.338-6.106 1.295zM464.083 91.534l3.475 3.753-1.127.8-4.4-4.757 9.091-8.42 1.053 1.136zM469.923 98.1l3.272 3.926-1.166.738-4.147-4.977 9.511-7.926.991 1.189zM479.324 107.2l-2.875-3.873-3.123 1.108-.944-1.272L484.716 99l1.18 1.589-7.56 10.588-.987-1.329zm.79-1.08l4.13-5.576-6.544 2.325zM486.755 117.662c-2.158 1.4-4.013.268-5.563-2.116l-1.854-2.852 10.382-6.751 1.57 2.415c1.639 2.52 1.785 4.529-.01 5.7a2.718 2.718 0 01-3.535-.45c.599 1.346.775 2.906-.99 4.054zm-.9-1.389c1.479-.961 1.286-2.381.452-3.664l-1.188-1.826-3.878 2.522 1.011 1.554c1.007 1.554 2.076 2.405 3.6 1.414zm3.671-8.355l-3.4 2.208 1.1 1.69c.774 1.192 1.957 1.69 3.089.954 1.3-.844 1.052-2.015.021-3.6zM495.129 127.068c-3.571 1.985-6.6 1.279-8.1-1.427-1.5-2.69-.568-5.615 3.051-7.626 3.571-1.985 6.663-1.274 8.15 1.4 1.492 2.691.549 5.624-3.101 7.653zm-4.248-7.605c-3.146 1.748-3.737 3.724-2.723 5.548 1.05 1.888 3 2.367 6.166.61s3.828-3.672 2.77-5.576c-1.032-1.856-3.035-2.345-6.213-.582zM497.263 133.477l-.871-1.858-4.824 2.263-.658-1.4 11.212-5.259 1.354 2.884c1.3 2.771.9 4.709-1.174 5.68-1.6.749-2.923.338-4.145-1.038l-3.646 5.409-.787-1.679zm.993-.724c.756 1.613 1.8 2.259 3.343 1.533 1.418-.665 1.655-1.77.761-3.677l-.688-1.467-4.189 1.965zM500.356 146.265l-1.775-4.486-3.3.262-.583-1.473 12.993-.824.729 1.841-10.047 8.273-.609-1.54zm1.043-.838l5.435-4.319-6.925.552zM511.338 153.9l-1.105-3.293-10.474 3.514-.492-1.467 10.474-3.514-1.133-3.378 1.263-.423 2.786 8.308zM501.845 160.913l-.429-1.487 11.894-3.433.43 1.487zM503.738 168.232l-.395-1.645 11.106-6.79.394 1.645-9.671 5.595 11.161.618.369 1.541zM517.073 178.236l-.865-4.8-4.11.739.75 4.164-1.24.223-.75-4.163-4.358.784.919 5.1-1.24.224-1.193-6.626 12.188-2.194 1.17 6.5z"/></g><g fill="#fff"><path d="M267.34 302.708l-2.372-1.99 4.924-8.814-7.863 6.351-2.3-1.932 6.268-10.977 1.807 1.515-5.564 9.1 8.336-6.776 1.932 1.619-5.247 9.367 8.1-6.973 1.724 1.446zM280.407 304.909l-3.716-2.41-3.027 4.668-1.994-1.293 6.769-10.438 1.994 1.293-2.714 4.184 3.717 2.41 2.713-4.184 2.009 1.3-6.769 10.438-2.009-1.3zM289.379 312.935l-3.669-1.876-2 2.211-2.194-1.123 9.106-9.309 2.612 1.336L291 317l-2.243-1.147zm.387-1.823l1.295-6.008-4.114 4.566zM303.455 310.683l-3-1.231-4.005 9.756-2.214-.909 4.005-9.756-3.1-1.271.718-1.748 8.54 3.507zM317.73 325.61l-3.01-.727.491-10.087-4.219 9.187-2.923-.706.733-12.622 2.293.554-.937 10.628 4.455-9.779 2.45.592-.534 10.725 4.157-9.85 2.188.528zM331.129 316.736l-4.553-.572-.433 3.446 3.963.5-.219 1.749-3.964-.5-.455 3.624 4.874.613-.222 1.767-7.231-.908 1.55-12.336 7.159.9zM345.98 316.581l-1.148 1.368a4.171 4.171 0 00-2.805-1.016c-1.116.018-1.917.535-1.9 1.506.015.9.507 1.288 2.586 1.9 2.188.648 3.714 1.524 3.752 3.862.036 2.231-1.684 3.842-4.652 3.89a6.182 6.182 0 01-4.507-1.637l1.2-1.387a4.742 4.742 0 003.222 1.19c1.331-.021 2.274-.684 2.255-1.89-.017-1.043-.546-1.5-2.5-2.065-2.621-.767-3.771-1.793-3.8-3.682-.033-2.068 1.726-3.464 4.173-3.5a5.6 5.6 0 014.124 1.461zM355.653 316.461l-3.227.283.921 10.506-2.385.209-.921-10.506-3.335.292-.165-1.883 9.2-.806zM363.585 322.894l-4.064.695-.277 2.97-2.431.416 1.717-12.915 2.893-.5 5.9 11.612-2.485.425zm-.785-1.694l-2.563-5.589-.56 6.123zM378.613 322.11l-2.964.829-6.82-8.539a39.531 39.531 0 011.656 4.714l1.368 4.886-2.08.582-3.353-11.977 2.895-.811 6.894 8.538a30.944 30.944 0 01-1.457-4l-1.572-5.616 2.08-.582zM388.914 311.442c1.875 4.679-.52 6.977-3.277 8.082l-3.141 1.26-4.629-11.546 2.841-1.138c3.041-1.22 6.292-1.436 8.206 3.342zm-8.178-1.434l3.3 8.237 1.086-.435c1.72-.69 2.833-2.028 1.466-5.436-1.393-3.476-3.132-3.458-4.836-2.774zM392.428 302.783l6.128-3.466.649 1.659-3.839 2.173 1.835 3.243 3.338-1.888.868 1.536-3.337 1.888 2.553 4.513-2.069 1.17zM411.581 297.931c2.344 3.368 1.984 6.536-.748 8.439s-5.8 1.21-8.178-2.2c-2.335-3.353-1.97-6.545.762-8.448s5.788-1.203 8.164 2.209zm-6.873 4.808c1.913 2.747 3.594 3.177 5.086 2.139 1.521-1.06 1.657-2.755-.267-5.517-1.9-2.733-3.535-3.219-5.071-2.149s-1.656 2.779.252 5.527zM417.468 294.581l-1.143.989 3.263 3.77-1.8 1.555-8.14-9.4 2.8-2.426c2.464-2.133 4.507-2.33 6.121-.465a3.358 3.358 0 01.3 4.194l6.009 1.965-2.069 1.79zm-2.262-.3l1.116-.966c1.116-.966 1.353-1.957.376-3.086-.884-1.021-1.846-.95-3.153.18l-.966.837z"/></g><g fill="#fff"><path d="M296.07 360.478l-.994.684a3.221 3.221 0 00-1.741-1.293c-1.475-.471-2.785.377-3.558 2.795-.767 2.4-.152 3.731 1.323 4.2a3.4 3.4 0 002.214-.067l.367 1.156a4.3 4.3 0 01-3.027.13c-2.4-.767-3.357-2.981-2.426-5.9.92-2.881 3.021-4.309 5.439-3.536a4.152 4.152 0 012.403 1.831zM304.854 364.734l-1.668 6.575-1.466-.372 1.616-6.366c.358-1.412-.12-2.016-1.062-2.255a3.022 3.022 0 00-2.849 1.059l-1.664 6.558-1.465-.372 3.262-12.854 1.509.2-1.31 5.163a3.5 3.5 0 013.176-.809 2.594 2.594 0 011.921 3.473zM314.318 372.643l-.548.978a1.842 1.842 0 01-1.468-1.757 3.23 3.23 0 01-3.064.913 2.737 2.737 0 01-2.414-3.361c.369-1.983 2.054-2.768 4.6-2.293l1.522.283.138-.743c.257-1.381-.3-2.034-1.644-2.284a7.963 7.963 0 00-2.609.045l-.167-1.166a8.831 8.831 0 013.269-.051c2.212.412 3.011 1.733 2.651 3.662l-.8 4.319c-.162.867.071 1.185.534 1.455zm-1.966-2.033l.412-2.212-1.327-.248c-1.735-.323-2.777.161-3.024 1.488a1.574 1.574 0 001.373 2.069 2.518 2.518 0 002.566-1.097zM330.307 368.569l-.708 6.748-1.5-.157.685-6.533c.152-1.45-.408-1.979-1.177-2.06-1.056-.111-1.738.523-2.509 1.492l-.7 6.712-1.5-.158.686-6.533c.152-1.449-.408-1.979-1.178-2.059-1.038-.109-1.738.523-2.491 1.494l-.7 6.712-1.5-.158.987-9.415 1.289.136-.023 1.427a3.292 3.292 0 012.927-1.34 2.366 2.366 0 012.179 2 3.363 3.363 0 013.029-1.456c1.522.163 2.39 1.379 2.204 3.148zM341.77 370.921c-.067 2.9-1.374 4.936-3.8 4.881a3.089 3.089 0 01-2.493-1.173l-.1 4.515-1.515.145.3-13.258 1.295.029.1 1.316a3.412 3.412 0 012.841-1.464c2.477.056 3.44 2.004 3.372 5.009zm-1.62-.037c.058-2.519-.67-3.742-2.145-3.775a2.931 2.931 0 00-2.391 1.457l-.109 4.731a2.559 2.559 0 002.149 1.255c1.565.036 2.438-1.132 2.496-3.668zM346.584 362.656a1.071 1.071 0 11-1.106-1.015 1.021 1.021 0 011.106 1.015zm.022 12.889l-1.512.039-.24-9.463 1.511-.039zM357.915 370.109c.219 2.961-1.159 5.065-3.8 5.261s-4.287-1.614-4.509-4.611c-.219-2.96 1.159-5.065 3.8-5.26 2.656-.199 4.286 1.595 4.509 4.61zm-6.691.531c.185 2.494 1.171 3.63 2.8 3.509s2.459-1.39 2.272-3.921c-.185-2.494-1.171-3.63-2.8-3.509-1.615.12-2.459 1.391-2.272 3.921zM367.91 366.728l.949 6.719-1.5.211-.919-6.5c-.2-1.444-.858-1.824-1.82-1.688a2.991 2.991 0 00-2.251 2.081l.944 6.684-1.5.211-1.324-9.374 1.283-.181.324 1.39a3.6 3.6 0 012.711-2.037 2.578 2.578 0 013.103 2.484zM372.116 359.724a1.071 1.071 0 11-1.257-.822 1.021 1.021 0 011.257.822zm2.125 12.72l-1.486.285-1.781-9.3 1.485-.284zM383.519 363.374l1.605 6.592-1.469.358-1.554-6.383c-.345-1.416-1.033-1.73-1.977-1.5a2.991 2.991 0 00-2.035 2.293l1.6 6.557-1.469.358-2.24-9.2 1.259-.307.459 1.352a3.606 3.606 0 012.5-2.294 2.578 2.578 0 013.321 2.174zM393.5 357.944a10.011 10.011 0 01-2.526 1.09 2.487 2.487 0 012.3 1.826c.552 1.77-.323 3.438-2.454 4.1a3.765 3.765 0 01-1.2.187 1.122 1.122 0 00-.22 1.049c.134.429.516.687 1.478.387l1.443-.45c1.838-.573 3.368.1 3.807 1.509.541 1.736-.546 3.149-3.312 4.011-2.9.905-4.121.323-4.689-1.5l1.306-.407c.337 1.083 1 1.4 3.03.771 1.993-.621 2.531-1.373 2.237-2.318-.279-.894-1.122-1.121-2.291-.757l-1.426.445c-1.58.492-2.548-.073-2.827-.966a2 2 0 01.487-1.886 2.737 2.737 0 01-2.3-2.055 3.318 3.318 0 012.462-4.2 7.991 7.991 0 003.853-2.03zm-5.679 4.58a1.992 1.992 0 002.652 1.492 1.939 1.939 0 001.317-2.729 1.913 1.913 0 00-2.658-1.453 1.963 1.963 0 00-1.308 2.69z"/></g><g fill="#fff"><path d="M185.416 270.916a3.614 3.614 0 01-1.348-1.716 2.336 2.336 0 011.553-3.3l5.467-2.139-.6-1.526 1.09-.427.6 1.526 2.029-.794.7 1.35-2.18.853.833 2.13-1.149.275-.774-1.979-5.4 2.113c-.922.361-1.234.85-.925 1.638a2.514 2.514 0 00.848 1.08zM189.545 279.145l-1.115.108a1.841 1.841 0 01.6-2.207 3.231 3.231 0 01-2.5-1.992 2.737 2.737 0 011.38-3.9c1.837-.828 3.443.105 4.508 2.467l.637 1.411.689-.311c1.279-.577 1.5-1.406.935-2.652a7.927 7.927 0 00-1.527-2.115l.862-.8a8.831 8.831 0 011.908 2.653c.925 2.05.3 3.459-1.491 4.266l-4 1.805c-.801.36-.931.733-.886 1.267zm.546-2.773l2.05-.925-.555-1.231c-.725-1.607-1.717-2.186-2.947-1.631a1.572 1.572 0 00-.913 2.307 2.517 2.517 0 002.365 1.48zM190.983 283.849l-.7-1.338 11.757-6.171.861 1.255zm5.5-.857l-2.8 6-.845-1.609 2.766-5.841 5.479 1.188.787 1.5zM195.615 292.24l-.761-1.306 8.179-4.767.761 1.306zm11.287-6.225a1.071 1.071 0 11.358-1.458 1.02 1.02 0 01-.36 1.458zM207.259 297.983l-5.69 3.7-.825-1.268 5.508-3.587c1.223-.8 1.29-1.549.76-2.364a2.993 2.993 0 00-2.84-1.16l-5.659 3.685-.825-1.267 7.938-5.169.707 1.086-1.123.882a3.612 3.612 0 013 1.6 2.58 2.58 0 01-.951 3.862zM215.707 305.641a10.042 10.042 0 01-1.864-2.022 2.487 2.487 0 01-.96 2.778c-1.487 1.107-3.35.833-4.682-.957a3.764 3.764 0 01-.576-1.074 1.124 1.124 0 00-1.062.14c-.361.268-.478.714.124 1.522l.9 1.213c1.15 1.545 1.021 3.21-.162 4.091-1.458 1.085-3.151.528-4.881-1.8-1.815-2.439-1.67-3.781-.14-4.92l.817 1.1c-.91.677-.992 1.411.276 3.114 1.246 1.675 2.134 1.933 2.928 1.343.75-.559.685-1.43-.045-2.412l-.892-1.2c-.988-1.328-.775-2.428-.024-2.987a2 2 0 011.94-.165 2.735 2.735 0 011.177-2.85 3.317 3.317 0 014.775.932 7.973 7.973 0 003.192 2.963zm-6.2-3.841a1.991 1.991 0 00-.529 3 1.938 1.938 0 003.011.339 1.913 1.913 0 00.49-2.988 1.962 1.962 0 00-2.973-.351z"/></g><g fill="#fff"><path d="M160.839 246.47l-.442-2-5.2 1.147-.333-1.512 12.094-2.666.686 3.111c.659 2.988-.161 4.791-2.393 5.283-1.723.38-2.926-.313-3.816-1.923l-4.746 4.474-.4-1.81zm1.128-.489c.383 1.741 1.254 2.6 2.924 2.231 1.53-.337 2-1.363 1.55-3.42l-.348-1.582-4.518 1zM169.909 258.415l-1.319-4.7-4.022 1.129 1.144 4.074-1.213.341-1.144-4.074-4.264 1.2 1.4 4.992-1.214.341-1.82-6.483 11.926-3.349 1.786 6.361zM173 267.571l-1.175-.5a4.276 4.276 0 00.109-3.04c-.422-1.244-1.337-1.979-2.479-1.592-1.04.353-1.366 1.015-1.3 3.348.074 2.123-.161 3.894-2.359 4.64-2.046.694-3.981-.36-4.854-2.933a5.759 5.759 0 01.164-4.446l1.2.5a4.845 4.845 0 00-.141 3.507c.486 1.432 1.612 2.342 3.061 1.851 1.21-.411 1.542-1.17 1.473-3.389-.082-2.538.4-3.975 2.189-4.582 1.756-.6 3.526.476 4.249 2.607a5.085 5.085 0 01-.137 4.029zM174.639 278.734c-2.621 1.058-4.451-.4-5.47-2.917l-.607-1.5-4.273 1.726-.58-1.435 11.485-4.641 1.187 2.938c1.106 2.736.662 4.857-1.742 5.829zM174 277.2c1.769-.714 1.952-2.089 1.237-3.859l-.6-1.485-4.925 1.989.587 1.453c.71 1.756 1.717 2.709 3.701 1.902zM177.67 290.789c-3.682 1.77-6.663.886-8-1.9s-.234-5.639 3.5-7.432c3.681-1.77 6.726-.877 8.052 1.88 1.326 2.771.211 5.643-3.552 7.452zm-3.79-7.843c-3.244 1.56-3.95 3.5-3.046 5.378.936 1.947 2.858 2.54 6.119.973s4.038-3.439 3.094-5.4c-.92-1.916-2.891-2.526-6.167-.951zM178.07 304.142l-1.032-1.814 6.695-9.811a47.29 47.29 0 01-3.975 2.509l-5.193 2.954-.721-1.267 10.761-6.12 1.005 1.767-6.693 9.851c.28-.2 1.842-1.275 3.171-2.031l6.022-3.425.721 1.267zM193.438 307.4l-1.262-.187a4.274 4.274 0 00-.65-2.972c-.719-1.1-1.788-1.586-2.8-.926-.919.6-1.071 1.323-.424 3.566.6 2.038.812 3.813-1.132 5.083-1.809 1.181-3.946.641-5.432-1.636a5.756 5.756 0 01-.947-4.348l1.286.192a4.846 4.846 0 00.736 3.433c.827 1.266 2.144 1.868 3.426 1.032 1.07-.7 1.2-1.517.584-3.65-.71-2.439-.6-3.951.982-4.984 1.553-1.014 3.535-.416 4.765 1.469a5.09 5.09 0 01.868 3.928zM187 317.623l-.9-1.26 10.078-7.2.9 1.259zM197.3 325.312c-2.025 1.589-3.972.623-5.727-1.614l-2.1-2.676 9.742-7.643 1.778 2.266c1.855 2.364 2.179 4.352.494 5.674a2.718 2.718 0 01-3.56-.135c.712 1.291 1.026 2.829-.627 4.128zm-1.022-1.3c1.388-1.089 1.069-2.486.125-3.69l-1.344-1.713-3.639 2.855 1.144 1.458c1.136 1.457 2.28 2.21 3.71 1.088zm2.916-8.647l-3.186 2.5 1.244 1.586c.877 1.118 2.1 1.509 3.161.676 1.218-.955.869-2.1-.3-3.587zM197.657 331.082l-1.009-1.173 9.385-8.073 1.009 1.173zM202.444 334.385l3.484 3.74-1.124.8-4.416-4.74 9.06-8.441 1.055 1.133zM207.9 342l-1.1-1.09 8.724-8.787 1.1 1.09zM223.5 341.465l-2.562-2.348-7.467 8.151-1.142-1.045 7.467-8.151-2.629-2.408.9-.983 6.464 5.923zM224.17 350.177l-3.044 3.694-1.222-1.007 3.033-3.68 1.772-8.4 1.333 1.1-1.572 6.773 6.334-2.848 1.264 1.042z"/></g><g fill="#fff"><path d="M286.9 377.134l-1.11.629a4.267 4.267 0 00-2.341-1.943c-1.243-.426-2.383-.15-2.774.991-.355 1.039-.031 1.7 1.86 3.071 1.726 1.238 2.985 2.506 2.233 4.7-.7 2.043-2.716 2.932-5.287 2.052a5.76 5.76 0 01-3.421-2.845l1.132-.64a4.843 4.843 0 002.691 2.253c1.431.489 2.839.154 3.335-1.294.413-1.209.015-1.935-1.784-3.236-2.06-1.485-2.9-2.744-2.292-4.532.6-1.754 2.53-2.5 4.659-1.772a5.087 5.087 0 013.099 2.566zM295.9 387.237a3.92 3.92 0 01-5.236 2.868 3.874 3.874 0 01-2.988-5.139l2.247-8.137 1.492.412-2.213 8.016c-.518 1.874.047 3.075 1.816 3.564 1.787.493 2.871-.253 3.388-2.127l2.214-8.015 1.527.421zM307.742 382.429l-1.026.757a4.27 4.27 0 00-2.558-1.647c-1.285-.273-2.384.138-2.635 1.317-.228 1.075.175 1.694 2.216 2.826 1.863 1.022 3.265 2.129 2.783 4.4-.449 2.113-2.344 3.238-5 2.673a5.759 5.759 0 01-3.739-2.413l1.047-.771a4.849 4.849 0 002.943 1.913c1.479.314 2.837-.189 3.155-1.686.265-1.25-.217-1.923-2.161-3-2.223-1.227-3.213-2.376-2.82-4.224.385-1.814 2.211-2.788 4.412-2.321a5.09 5.09 0 013.383 2.176zM317.248 384.115l-3.431-.548-1.743 10.915-1.529-.244 1.743-10.915-3.52-.562.21-1.315 8.657 1.382zM323.306 392.711l-4.8-.524-1.311 3.045-1.575-.172 5.335-11.878 1.969.214 2.63 12.748-1.647-.179zm-.255-1.314l-1.284-6.823-2.743 6.384zM329.6 396.371l-1.545-.1.809-12.356 1.544.1zM342.383 396.776l-2.087-.035-5.036-10.757c.073.991.175 2.414.136 4.7l-.1 5.973-1.457-.025.21-12.377 2.033.034 5.071 10.776c-.03-.343-.16-2.235-.134-3.764l.118-6.926 1.457.025zM352.29 393.276l-4.817.213-.831 3.206-1.582.07 3.462-12.544 1.978-.087 4.536 12.19-1.654.073zm-.452-1.259l-2.306-6.544-1.738 6.723zM365.462 391.754c.264 2.56-1.591 3.692-4.419 3.984l-3.383.349-1.27-12.315 2.863-.3c2.989-.308 4.843.477 5.063 2.607a2.717 2.717 0 01-2.012 2.939c1.474.088 2.942.642 3.158 2.736zm-7.406-6.905l.416 4.027 2-.207c1.414-.146 2.4-.971 2.258-2.313-.159-1.539-1.313-1.855-3.192-1.661zm5.759 7.075c-.181-1.754-1.532-2.229-3.054-2.072l-2.166.223.475 4.6 1.844-.19c1.843-.185 3.086-.753 2.901-2.561zM370.509 394.528l-1.531.228-1.827-12.251 1.532-.228zM375.871 392.238l5.022-.954.078 1.378-6.366 1.209L372.3 381.7l1.521-.289zM385.233 391.669l-1.508.349-2.793-12.062 1.508-.349zM393.118 378.174l-3.352.919 2.923 10.662-1.493.409-2.923-10.664-3.438.943-.352-1.285 8.456-2.319zM400.812 382.24l1.513 4.542-1.5.5-1.508-4.525-6.181-5.965 1.639-.546 4.906 4.929.95-6.881 1.554-.518z"/></g><g fill="#fff"><path d="M492.722 321.9l-1.034 1.339-12.259-4.391 1.034-1.339 10.427 4.023-6.521-9.083.968-1.254zM497.118 310.335l-2.732 3.975 2.06 2.594-.9 1.306-7.931-10.32 1.121-1.632 12.467 3.72-.938 1.365zm-1.277-.4l-6.615-2.1 4.321 5.437zM502.2 305.728l2.666-4.363 1.074.866-3.379 5.532-10.571-6.456.807-1.322zM507.7 290.809a3.92 3.92 0 011.632 5.744 3.874 3.874 0 01-5.675 1.771l-7.436-4 .734-1.363 7.325 3.941c1.712.921 3.009.637 3.879-.98.879-1.633.392-2.855-1.321-3.777l-7.324-3.94.751-1.395zM505.611 278.39l-2.047 4.429 3.791 1.752 1.775-3.841 1.144.529-1.774 3.841 4.02 1.858 2.176-4.707 1.143.529-2.824 6.112-11.244-5.2 2.772-6z"/></g><g fill="#fff"><path d="M459.61 308.19l9.864 8.9-.88.976-1.1-.772a3.19 3.19 0 01-.695 3.082c-1.531 1.7-3.83 1.345-6.036-.644-2.152-1.941-2.774-4.369-1.219-6.093a3.434 3.434 0 012.606-1.116l-3.689-3.327zm7.007 8.355l-3.5-3.158a2.711 2.711 0 00-2.456.815c-.988 1.1-.693 2.623 1.179 4.311s3.321 1.88 4.273.824a2.732 2.732 0 00.504-2.792zM473.238 305.744l-3.786 4.785c1.893 1.291 3.246 1.031 4.14-.1a4.025 4.025 0 00.878-2.473l1.119.037a5.026 5.026 0 01-1.09 3.292c-1.62 2.046-4.023 2.1-6.38.23-2.329-1.843-3.036-4.285-1.539-6.176 1.575-1.99 3.787-1.915 6.031-.139.254.2.483.407.627.544zm-1.892.362c-1.5-1.184-2.827-1.273-3.8-.045-.816 1.03-.629 2.3 1.029 3.776l2.881-3.642zM476.96 304.705l-9.326-6.7.736-1.333 9.443 6.782c.424.3.748.316 1.011-.05a1.632 1.632 0 00.269-.56l1.094.3a2.78 2.78 0 01-.487 1.2 1.788 1.788 0 01-2.74.361zM472 292.409a1.071 1.071 0 11-1.468.317 1.021 1.021 0 011.468-.317zm10.537 7.421l-.841 1.257-7.865-5.266.841-1.256zM486.557 293.457l-.954 1.569-9.8-2.106.861-1.415 8.274 2.019-5.618-6.387.833-1.369zM489.044 280.288l-2.861 5.39c2.1.928 3.38.428 4.055-.844a4.023 4.023 0 00.417-2.59l1.107-.167a5.019 5.019 0 01-.478 3.435c-1.223 2.305-3.578 2.788-6.233 1.379-2.624-1.393-3.76-3.667-2.63-5.8 1.19-2.242 3.38-2.568 5.908-1.226.286.155.548.314.715.423zm-1.8.7c-1.685-.894-3.009-.741-3.744.642-.616 1.161-.2 2.379 1.694 3.528l2.177-4.1zM487.6 270.731l1.226.866a3.006 3.006 0 00-.448.706c-.508 1.094-.028 2.071 1.439 3.229l5.028 2.335-.637 1.372-8.588-3.989.546-1.176 1.857.7c-1.11-1.072-1.408-2.183-.915-3.244a3.778 3.778 0 01.492-.799zM486.021 265.908a1.071 1.071 0 11-1.382.591 1.021 1.021 0 011.382-.591zm11.768 5.275l-.586 1.394-8.732-3.668.585-1.394zM495.374 258.426l6.38 2.312-.516 1.422-6.176-2.239c-1.371-.5-2.013-.1-2.344.816a2.99 2.99 0 00.782 2.964l6.346 2.3-.515 1.422-8.9-3.227.441-1.218 1.38.366a3.607 3.607 0 01-.528-3.35 2.579 2.579 0 013.65-1.568zM496.394 247.092a10.017 10.017 0 01-.494 2.706 2.488 2.488 0 012.8-.905c1.779.522 2.682 2.175 2.054 4.317a3.753 3.753 0 01-.512 1.106 1.128 1.128 0 00.751.765c.432.126.859-.049 1.142-1.016l.426-1.451c.542-1.848 1.95-2.748 3.367-2.333 1.744.512 2.318 2.2 1.5 4.981-.856 2.919-2.016 3.61-3.847 3.074l.385-1.313c1.088.319 1.724-.057 2.322-2.1.587-2 .26-2.869-.69-3.147-.9-.263-1.555.313-1.9 1.487l-.42 1.434c-.466 1.589-1.474 2.082-2.372 1.818a2 2 0 01-1.3-1.45 2.736 2.736 0 01-2.985.775 3.32 3.32 0 01-2.131-4.377 7.987 7.987 0 00.446-4.334zm.664 7.267a1.993 1.993 0 002.712-1.381 1.939 1.939 0 00-1.542-2.61 1.914 1.914 0 00-2.683 1.408 1.963 1.963 0 001.513 2.583z"/></g><g fill="#fff"><path d="M170.622 155.781l.754 1.079a3.7 3.7 0 00-1.517 2.108c-.5 1.877.349 3.765 4.016 4.75 3.493.938 5.3-.178 5.816-2.09a4.149 4.149 0 00-.3-2.838l1.156-.491a4.831 4.831 0 01.415 3.727c-.77 2.867-3.5 4.369-7.517 3.291-4.067-1.093-5.59-3.887-4.862-6.6a4.809 4.809 0 012.039-2.936zM179.386 145.946c3.869 1.313 5.38 4.031 4.385 6.962-.989 2.915-3.779 4.192-7.7 2.862-3.869-1.313-5.419-4.082-4.436-6.979.99-2.915 3.797-4.191 7.751-2.845zM176.6 154.2c3.409 1.156 5.269.267 5.94-1.71.694-2.046-.264-3.815-3.69-4.977s-5.291-.37-5.991 1.692c-.678 2.013.302 3.828 3.741 4.995zM185.837 136.22a3.921 3.921 0 012.163 5.565 3.874 3.874 0 01-5.484 2.3l-7.779-3.285.6-1.426 7.663 3.232c1.791.757 3.056.353 3.77-1.339.722-1.708.122-2.88-1.669-3.636l-7.663-3.236.616-1.46zM187.759 129.115l-.923 1.831 4.756 2.4-.7 1.382-11.055-5.575 1.434-2.844c1.378-2.731 3.151-3.611 5.192-2.582 1.575.8 2.069 2.092 1.741 3.9l6.5-.468-.835 1.655zm-1.182-.334c.8-1.591.67-2.807-.857-3.576-1.4-.7-2.413-.21-3.361 1.67l-.729 1.446 4.129 2.083zM195.91 118.793l-2.433 4.163 2.243 2.436-.8 1.367-8.662-9.71 1-1.709 12.7 2.8-.835 1.429zm-1.3-.3l-6.748-1.61 4.706 5.105zM196.061 103.719l.294 1.3a3.941 3.941 0 00-2.363 1.708c-1.013 1.509-.888 3.806 2.19 5.874 3 2.018 4.97 1.8 6.215-.051a4.976 4.976 0 00.868-2.324l-3.227-2.168-1.255 1.867-1.161-.563 2.219-3.3 4.944 3.324a7.7 7.7 0 01-1.312 3.889c-1.767 2.629-4.66 3.092-8.215.7-3.48-2.339-3.907-5.64-2.341-7.971a5.206 5.206 0 013.144-2.285zM202.224 95.782l-2.961 3.874 3.317 2.535 2.568-3.36 1 .765-2.567 3.36 3.517 2.687 3.147-4.117 1 .764-4.087 5.348-9.836-7.517 4.01-5.247zM214.374 89.144c3.083 2.681 3.451 5.768 1.419 8.1s-5.085 2.446-8.208-.27c-3.083-2.681-3.468-5.83-1.461-8.139s5.099-2.435 8.25.309zm-5.7 6.585c2.716 2.362 4.775 2.244 6.145.669 1.417-1.63 1.2-3.631-1.529-6s-4.756-2.347-6.185-.7c-1.397 1.594-1.177 3.645 1.566 6.031zM224.043 82.555a3.922 3.922 0 01-.1 5.972 3.876 3.876 0 01-5.943.053l-5.964-5.98 1.1-1.093 5.872 5.894c1.373 1.377 2.7 1.482 4 .185s1.2-2.621-.171-4l-5.872-5.893 1.122-1.118zM226.87 70.345v1.275a4.274 4.274 0 00-2.849 1.067c-.987.868-1.315 2-.518 2.9.725.824 1.461.872 3.589-.089 1.932-.883 3.659-1.346 5.192.4 1.426 1.622 1.2 3.814-.845 5.609a5.763 5.763 0 01-4.169 1.556l.007-1.3a4.833 4.833 0 003.292-1.217c1.136-1 1.544-2.388.534-3.537-.844-.96-1.672-.975-3.7-.059-2.313 1.051-3.825 1.158-5.073-.262-1.224-1.392-.914-3.439.776-4.925a5.089 5.089 0 013.764-1.418z"/></g></svg>